<?xml version="1.0" encoding="UTF-8"?>
<svg id="Layer_1" data-name="Layer 1" xmlns="http://www.w3.org/2000/svg" viewBox="0 0 500 500">
  <path d="M305.52,442.33c-10.15.24-18.29-.06-24.19-.87-5.19-.71-9.33-2.71-12.65-6.13-3.13-3.22-4.72-8.65-4.72-16.12,0-7.02.66-16.07,1.97-26.9,1.32-10.92,3.45-26.85,6.35-47.33l16.72-114.5c1.48-10.13,2.23-19.4,2.23-27.55,0-15.95-4.06-28.04-12.07-35.92-8.11-7.96-21.44-11.83-40.77-11.83-21.18,0-40.55,4.19-57.58,12.45-1.39.67-2.33,2.01-2.51,3.55l-3.23,28.74c-.18.94-.05,1.92.38,2.8v.02c.85,1.73,2.69,2.72,4.59,2.5l14.78-.35c10.07,0,17.65,1.35,22.52,3.99,1.49.81,6.01,3.27,6.01,14.04,0,1.46-.23,4.08-.68,7.72l-25.81,179.95c-1.48,10.6-2.22,20.23-2.22,28.61,0,18.41,4.51,32.04,13.39,40.52,8.83,8.42,23.45,12.69,43.46,12.69,9.77,0,19.61-1.21,29.25-3.58,9.66-2.39,17.75-5.27,24.07-8.55,1.35-.7,2.25-2.04,2.4-3.55l2.91-29.44c.13-1.28-.3-2.56-1.18-3.5s-2.1-1.48-3.4-1.44Z" fill="#fff" stroke="#fff" stroke-miterlimit="10"/>
  <path d="M312.3,20.78c-8.49-8.74-18.93-13.18-31.04-13.18-8.99,0-17.27,2.16-24.61,6.43-7.34,4.27-13.09,10.03-17.11,17.13-4,7.08-6.03,14.73-6.03,22.72h0v.03h0c0,12.11,4.37,22.54,12.98,31,8.6,8.46,18.96,12.74,30.79,12.74,13.21,0,24.56-4.25,33.74-12.63,9.43-8.6,14.01-19.02,14.01-31.85s-4.28-23.67-12.72-32.39Z" fill="#fff" stroke="#fff" stroke-miterlimit="10"/>
</svg>